<svg width="551" height="137" viewBox="0 0 551 137" fill="none" xmlns="http://www.w3.org/2000/svg">
<g id="Post-red">
<g id="Rectangle 150" filter="url(#filter0_dd)">
<rect x="3" y="3" width="537" height="123" rx="20" fill="#F52332"/>
</g>
<path id="Post" d="M218.094 69.1875V87H212.094V41.5H228.875C233.854 41.5 237.75 42.7708 240.562 45.3125C243.396 47.8542 244.812 51.2188 244.812 55.4062C244.812 59.8229 243.427 63.2292 240.656 65.625C237.906 68 233.958 69.1875 228.812 69.1875H218.094ZM218.094 64.2812H228.875C232.083 64.2812 234.542 63.5312 236.25 62.0312C237.958 60.5104 238.812 58.3229 238.812 55.4688C238.812 52.7604 237.958 50.5938 236.25 48.9688C234.542 47.3438 232.198 46.5 229.219 46.4375H218.094V64.2812ZM249.594 69.7812C249.594 66.4688 250.24 63.4896 251.531 60.8438C252.844 58.1979 254.656 56.1562 256.969 54.7188C259.302 53.2812 261.958 52.5625 264.938 52.5625C269.542 52.5625 273.26 54.1562 276.094 57.3438C278.948 60.5312 280.375 64.7708 280.375 70.0625V70.4688C280.375 73.7604 279.74 76.7188 278.469 79.3438C277.219 81.9479 275.417 83.9792 273.062 85.4375C270.729 86.8958 268.042 87.625 265 87.625C260.417 87.625 256.698 86.0312 253.844 82.8438C251.01 79.6562 249.594 75.4375 249.594 70.1875V69.7812ZM255.406 70.4688C255.406 74.2188 256.271 77.2292 258 79.5C259.75 81.7708 262.083 82.9062 265 82.9062C267.938 82.9062 270.271 81.7604 272 79.4688C273.729 77.1562 274.594 73.9271 274.594 69.7812C274.594 66.0729 273.708 63.0729 271.938 60.7812C270.188 58.4688 267.854 57.3125 264.938 57.3125C262.083 57.3125 259.781 58.4479 258.031 60.7188C256.281 62.9896 255.406 66.2396 255.406 70.4688ZM307.312 78.0312C307.312 76.4688 306.719 75.2604 305.531 74.4062C304.365 73.5312 302.312 72.7812 299.375 72.1562C296.458 71.5312 294.135 70.7812 292.406 69.9062C290.698 69.0312 289.427 67.9896 288.594 66.7812C287.781 65.5729 287.375 64.1354 287.375 62.4688C287.375 59.6979 288.542 57.3542 290.875 55.4375C293.229 53.5208 296.229 52.5625 299.875 52.5625C303.708 52.5625 306.812 53.5521 309.188 55.5312C311.583 57.5104 312.781 60.0417 312.781 63.125H306.969C306.969 61.5417 306.292 60.1771 304.938 59.0312C303.604 57.8854 301.917 57.3125 299.875 57.3125C297.771 57.3125 296.125 57.7708 294.938 58.6875C293.75 59.6042 293.156 60.8021 293.156 62.2812C293.156 63.6771 293.708 64.7292 294.812 65.4375C295.917 66.1458 297.906 66.8229 300.781 67.4688C303.677 68.1146 306.021 68.8854 307.812 69.7812C309.604 70.6771 310.927 71.7604 311.781 73.0312C312.656 74.2812 313.094 75.8125 313.094 77.625C313.094 80.6458 311.885 83.0729 309.469 84.9062C307.052 86.7188 303.917 87.625 300.062 87.625C297.354 87.625 294.958 87.1458 292.875 86.1875C290.792 85.2292 289.156 83.8958 287.969 82.1875C286.802 80.4583 286.219 78.5938 286.219 76.5938H292C292.104 78.5312 292.875 80.0729 294.312 81.2188C295.771 82.3438 297.688 82.9062 300.062 82.9062C302.25 82.9062 304 82.4688 305.312 81.5938C306.646 80.6979 307.312 79.5104 307.312 78.0312ZM328.469 45V53.1875H334.781V57.6562H328.469V78.625C328.469 79.9792 328.75 81 329.312 81.6875C329.875 82.3542 330.833 82.6875 332.188 82.6875C332.854 82.6875 333.771 82.5625 334.938 82.3125V87C333.417 87.4167 331.938 87.625 330.5 87.625C327.917 87.625 325.969 86.8438 324.656 85.2812C323.344 83.7188 322.688 81.5 322.688 78.625V57.6562H316.531V53.1875H322.688V45H328.469Z" fill="white"/>
</g>
<defs>
<filter id="filter0_dd" x="0" y="0" width="551" height="137" filterUnits="userSpaceOnUse" color-interpolation-filters="sRGB">
<feFlood flood-opacity="0" result="BackgroundImageFix"/>
<feColorMatrix in="SourceAlpha" type="matrix" values="0 0 0 0 0 0 0 0 0 0 0 0 0 0 0 0 0 0 127 0"/>
<feOffset dx="-2" dy="-2"/>
<feGaussianBlur stdDeviation="0.5"/>
<feColorMatrix type="matrix" values="0 0 0 0 1 0 0 0 0 0.454167 0 0 0 0 0.454167 0 0 0 0.77 0"/>
<feBlend mode="normal" in2="BackgroundImageFix" result="effect1_dropShadow"/>
<feColorMatrix in="SourceAlpha" type="matrix" values="0 0 0 0 0 0 0 0 0 0 0 0 0 0 0 0 0 0 127 0"/>
<feOffset dx="4" dy="4"/>
<feGaussianBlur stdDeviation="3.5"/>
<feColorMatrix type="matrix" values="0 0 0 0 0 0 0 0 0 0 0 0 0 0 0 0 0 0 0.25 0"/>
<feBlend mode="normal" in2="effect1_dropShadow" result="effect2_dropShadow"/>
<feBlend mode="normal" in="SourceGraphic" in2="effect2_dropShadow" result="shape"/>
</filter>
</defs>
</svg>
