<svg width="569" height="155" viewBox="0 0 569 155" fill="none" xmlns="http://www.w3.org/2000/svg">
<g id="Post-blue">
<g id="Rectangle 150" filter="url(#filter0_dd)">
<rect x="16" y="16" width="537" height="123" rx="20" fill="white"/>
</g>
<path id="Post" d="M236.723 96V78.784C238.963 78.976 241.651 79.04 243.443 79.04C254.387 79.04 259.571 72.256 259.571 64.96C259.571 57.984 255.795 51.072 242.995 51.072C240.179 51.072 233.779 51.2 231.283 51.2V96H236.723ZM243.507 56.192C250.611 56.192 253.811 59.584 253.811 64.896C253.811 70.528 249.843 73.92 243.251 73.92C241.01 73.92 238.899 73.792 236.723 73.6V56.32C238.835 56.256 241.715 56.192 243.507 56.192ZM261.876 81.6C261.876 90.24 268.02 96.64 277.236 96.64C286.452 96.64 292.596 90.24 292.596 81.6C292.596 72.96 286.452 66.56 277.236 66.56C268.02 66.56 261.876 72.96 261.876 81.6ZM267.316 81.6C267.316 75.52 271.604 71.36 277.236 71.36C282.996 71.36 287.156 75.584 287.156 81.6C287.156 87.744 282.996 91.84 277.236 91.84C271.476 91.84 267.316 87.616 267.316 81.6ZM314.575 88.192C314.575 90.816 312.143 92.16 309.455 92.16C306.575 92.16 302.799 90.432 301.135 88.512L298.255 92.16C299.599 94.208 304.207 96.64 308.879 96.64C314.639 96.64 320.015 94.016 320.015 87.936C320.015 77.824 304.463 80.704 304.463 74.624C304.463 72.704 306.191 71.04 309.071 71.04C312.079 71.04 314.575 72.32 316.303 73.856L318.735 69.952C317.007 68.288 313.551 66.56 308.815 66.56C303.119 66.56 299.023 69.632 299.023 74.688C299.023 85.248 314.575 82.368 314.575 88.192ZM326.843 85.056C326.843 92.416 329.403 96.512 335.867 96.512C339.067 96.512 341.691 95.36 343.227 94.08L341.627 90.112C340.603 90.88 339.067 91.712 337.083 91.712C333.435 91.712 331.963 89.088 331.963 84.544V72H342.523V67.2H331.963V59.2H326.843V85.056Z" fill="#7DB1E1"/>
</g>
<defs>
<filter id="filter0_dd" x="0" y="0" width="569" height="155" filterUnits="userSpaceOnUse" color-interpolation-filters="sRGB">
<feFlood flood-opacity="0" result="BackgroundImageFix"/>
<feColorMatrix in="SourceAlpha" type="matrix" values="0 0 0 0 0 0 0 0 0 0 0 0 0 0 0 0 0 0 127 0"/>
<feOffset dx="-4" dy="-4"/>
<feGaussianBlur stdDeviation="6"/>
<feColorMatrix type="matrix" values="0 0 0 0 0.489514 0 0 0 0 0.6943 0 0 0 0 0.883333 0 0 0 0.25 0"/>
<feBlend mode="normal" in2="BackgroundImageFix" result="effect1_dropShadow"/>
<feColorMatrix in="SourceAlpha" type="matrix" values="0 0 0 0 0 0 0 0 0 0 0 0 0 0 0 0 0 0 127 0"/>
<feOffset dx="4" dy="4"/>
<feGaussianBlur stdDeviation="6"/>
<feColorMatrix type="matrix" values="0 0 0 0 0.0333333 0 0 0 0 0.0308333 0 0 0 0 0.0310119 0 0 0 0.25 0"/>
<feBlend mode="normal" in2="effect1_dropShadow" result="effect2_dropShadow"/>
<feBlend mode="normal" in="SourceGraphic" in2="effect2_dropShadow" result="shape"/>
</filter>
</defs>
</svg>
